# xmcd
#
# Track frame offsets:
#	150
#	15987
#	29927
#	45162
#	54977
#	67907
#	79872
#	94350
#	104097
#	116102
#	129595
#	143772
#	160430
#
# Disc length: 2270 seconds
#
# Revision: 0
# Processed by: cddbd v1.5.2PL0 Copyright (c) Steve Scherf et al.
# Submitted via: EasyCDDAExtractor 11.1.0.1
#
DISCID=b108dc0d
DTITLE=Various Artist - Nashville music express 18
DYEAR=1900
DGENRE=country
TTITLE0=Hermann Lammerss Meyer - A song for Sarah
TTITLE1=Traci Hallard - Comin' on strong
TTITLE2=Gene Watson - Couldn't love have picked a better place to die
TTITLE3=Jimmy Bee - Hello Mr. Blues
TTITLE4=Anthony Carson - I think she's really leavin'
TTITLE5=Lory Lynn - Jukebox Jenny
TTITLE6=Scooter lee - Let's break up tomorrow
TTITLE7=Bill and Audrey - Looking back to see
TTITLE8=Alice Fay - Never is a battle
TTITLE9=Clinton Gregory - Rocking the country
TTITLE10=Hermann Lammerss Meyer - (Take some)time off
TTITLE11=Roxanne Breon - The sun always shinin'
TTITLE12=Michael Thomason - You looked at me
EXTD=
EXTT0=
EXTT1=
EXTT2=
EXTT3=
EXTT4=
EXTT5=
EXTT6=
EXTT7=
EXTT8=
EXTT9=
EXTT10=
EXTT11=
EXTT12=
PLAYORDER=
